<?xml version="1.0" encoding="utf-8"?>
<!-- Generator: Adobe Illustrator 19.1.0, SVG Export Plug-In . SVG Version: 6.00 Build 0)  -->
<svg version="1.1" id="Capa_1" xmlns="http://www.w3.org/2000/svg" xmlns:xlink="http://www.w3.org/1999/xlink" x="0px" y="0px"
	 width="18.1px" height="18.2px" viewBox="-122.9 302.5 18.1 18.2" style="enable-background:new -122.9 302.5 18.1 18.2;"
	 xml:space="preserve">
<style type="text/css">
	.st0{fill:#FFFFFF;}
</style>
<g>
	<g>
		<path class="st0" d="M-113.9,319c-4.2,0-7.6-3.4-7.6-7.6c0-4.2,3.4-7.6,7.6-7.6c4.2,0,7.6,3.4,7.6,7.6
			C-106.3,315.5-109.7,319-113.9,319z M-113.9,304.7c-3.7,0-6.6,3-6.6,6.6s3,6.6,6.6,6.6c3.7,0,6.6-3,6.6-6.6
			S-110.2,304.7-113.9,304.7z"/>
		<g>
			<path class="st0" d="M-110.7,311.8h-3.2c-0.3,0-0.5-0.2-0.5-0.5s0.2-0.5,0.5-0.5h3.2c0.3,0,0.5,0.2,0.5,0.5
				C-110.2,311.7-110.5,311.8-110.7,311.8z"/>
			<path class="st0" d="M-113.9,311.8h-3.2c-0.3,0-0.5-0.2-0.5-0.5s0.2-0.5,0.5-0.5h3.2c0.3,0,0.5,0.2,0.5,0.5
				C-113.4,311.7-113.6,311.8-113.9,311.8z"/>
		</g>
	</g>
</g>
</svg>
