<?xml version="1.0" encoding="utf-8"?>
<!-- Generator: Adobe Illustrator 19.1.0, SVG Export Plug-In . SVG Version: 6.00 Build 0)  -->
<svg version="1.1" id="Capa_1" xmlns="http://www.w3.org/2000/svg" xmlns:xlink="http://www.w3.org/1999/xlink" x="0px" y="0px"
	 width="18.1px" height="18.2px" viewBox="-122.9 302.5 18.1 18.2" style="enable-background:new -122.9 302.5 18.1 18.2;"
	 xml:space="preserve">
<style type="text/css">
	.st0{fill:#FFFFFF;}
</style>
<g>
	<path class="st0" d="M-106,303.6c-1.6-1.6-4.1-1.6-5.6,0L-122,314c-0.1,0.1-0.1,0.2-0.1,0.3l-0.8,5.7c0,0.2,0,0.3,0.1,0.4
		c0.1,0.1,0.2,0.2,0.4,0.2c0,0,0,0,0.1,0l3.4-0.5c0.3,0,0.5-0.3,0.4-0.6c0-0.3-0.3-0.5-0.6-0.4l-2.7,0.4l0.5-4l4.2,4.2
		c0.1,0.1,0.2,0.2,0.4,0.2s0.3-0.1,0.4-0.2l10.4-10.3c0.8-0.8,1.2-1.8,1.2-2.8C-104.8,305.4-105.2,304.4-106,303.6z M-111.4,304.9
		l1.7,1.7l-9.4,9.4l-1.7-1.7L-111.4,304.9z M-116.7,318.5l-1.7-1.7l9.4-9.4l1.7,1.7L-116.7,318.5z M-106.5,308.3l-4.2-4.2
		c0.5-0.4,1.2-0.7,1.9-0.7c0.8,0,1.5,0.3,2.1,0.9c0.6,0.6,0.9,1.3,0.9,2.1C-105.9,307.2-106.1,307.8-106.5,308.3z"/>
</g>
</svg>
