<?xml version="1.0" encoding="utf-8"?>
<!-- Generator: Adobe Illustrator 19.1.0, SVG Export Plug-In . SVG Version: 6.00 Build 0)  -->
<svg version="1.1" id="Capa_1" xmlns="http://www.w3.org/2000/svg" xmlns:xlink="http://www.w3.org/1999/xlink" x="0px" y="0px"
	 width="18.1px" height="18.2px" viewBox="-122.9 302.5 18.1 18.2" style="enable-background:new -122.9 302.5 18.1 18.2;"
	 xml:space="preserve">
<style type="text/css">
	.st0{fill:#FFFFFF;}
</style>
<g>
	<g>
		<path class="st0" d="M-108.5,305.1h-2.3v-1.5c0-0.3-0.2-0.5-0.5-0.5c0,0,0,0-0.1,0c0,0,0,0,0,0h-5.3h0h0c-0.3,0-0.5,0.2-0.5,0.5
			v1.5h-2.3c-0.7,0-1.2,0.5-1.2,1.2v0.8v1.1h1V319c0,0.7,0.5,1.2,1.2,1.2h9.1c0.7,0,1.2-0.5,1.2-1.2v-10.8h1v-1.1v-0.8
			C-107.4,305.6-107.9,305.1-108.5,305.1z M-116.3,304.1h4.5v1h-4.5V304.1z M-109.4,319C-109.4,319-109.4,319.1-109.4,319l-9.2,0.1
			c-0.1,0-0.1,0-0.1-0.1v-10.8h9.3V319z M-108.4,307.1h-11.3v-0.8c0-0.1,0-0.1,0.1-0.1h11.1c0.1,0,0.1,0,0.1,0.1V307.1L-108.4,307.1
			z"/>
		<rect x="-112.2" y="309.4" class="st0" width="1.1" height="8.7"/>
		<rect x="-114.6" y="309.4" class="st0" width="1.1" height="8.7"/>
		<rect x="-117.1" y="309.4" class="st0" width="1.1" height="8.7"/>
	</g>
</g>
</svg>
