<?xml version="1.0" encoding="utf-8"?>
<!-- Generator: Adobe Illustrator 19.1.0, SVG Export Plug-In . SVG Version: 6.00 Build 0)  -->
<svg version="1.1" id="Capa_1" xmlns="http://www.w3.org/2000/svg" xmlns:xlink="http://www.w3.org/1999/xlink" x="0px" y="0px"
	 width="585.2px" height="139.5px" viewBox="-90 443.7 585.2 139.5" style="enable-background:new -90 443.7 585.2 139.5;"
	 xml:space="preserve">
<g>
	<path d="M-61.9,537.4c-0.3,0.2-0.7,0.4-1,0.7H-90v27.9l17.1,17.3h57.7l16.8-16.8v-52.1l-17.4-16.8h-21.8c-0.1-1.6,0.3-3,0.3-3
		c2.3-1.1,4.7,1.7,4.7,1.7c1.1-0.1,2.5,0.7,2.5,0.7c1.7-0.5,6.6,0.7,6.8,0.4c0.2-3-1-4.8-2-5.7H1.7v-28.3l-19.1-19.6H-70l-20,19.8
		v51l17.3,17.3h15.8c-0.4,0.9-0.7,1.7-0.7,1.7L-61.9,537.4z M-32.7,486.9c-0.6-0.3-1.3-0.3-1.3-0.3l-1-1.1c0-2.3-2.5-1.7-2.5-1.7
		l0.2-1.3c0.7,0,2.6,0.3,4.7,0.6L-32.7,486.9L-32.7,486.9L-32.7,486.9z M-34.7,541l3.5,0.1v8.5h-8.3l0-1.4l0.1-7.7
		c0.1-1.9,1.5-0.7,1.5-0.7C-36.8,540.9-34.7,541-34.7,541z M-32.7,478.6c-0.1,0-0.2-0.1-0.3-0.1h0.3V478.6z M-71.7,529.6l-16-16
		v-49.1l18.6-18.5h50.7l18.1,18.5v24.7H-28c-0.2-0.3-0.3-0.6-0.3-0.6c-0.5-0.9-1.3-1.2-2.1-1.3v-4c2.2,0.3,4.1,0.5,4.3,0.3
		c1-1-1.6-2.7-4.3-4v-3.4h-7.5c-1.9-1.2-2.1-2.3-2.1-2.3c-0.6-4,3.8-2.4,3.8-2.4c2.4,0.2,2.8-1.2,2.8-1.2c-0.9-2.6-4.2-3.5-4.8-3.7
		c-0.6-0.3-0.7-0.5-0.5-1c0.2-0.3,2,0.5,2.5-0.1c1.3-1.3-3.3-4.3-3.3-4.3c3-0.2-0.3-3.2-0.3-3.2c-2-1.6-1.3-3-1.3-3
		c2.1,0.2,2.1-2,1.8-2.1c-3.1-0.7-2.6-1.9-2.6-1.9c0-1.1-0.5-2.2-0.5-2.2c0.4-1.9-0.4-1.5-0.4-1.5c-1.3,0-0.5,1.1-0.5,1.1
		c-0.5,1.9-1.8,3.2-1.8,3.2c-2.9-0.1-1.4,2.6-1.4,2.6l1.8-0.2l-0.4,1.7c-4.1,1.8-3,4.8-0.6,5.1c0.2,0.5-0.1,1-0.1,1
		c-2.5,0.1-2,1-4,2.1c-1.6,0.8-1.6,1.6-1.4,2.2c0.2,1.2,1.8,0.1,1.8,0.1l-1.5,2.1c-5.1,2.3-0.6,3.8-0.6,3.8c4-2.4,5.6-1.5,5.6-1.5
		c0.6,2.5-0.6,4.3-2.1,5.5h-7.9c0,0.7,0,2,0,3.6c-2.5,1.7-3.4,4-3.4,4c-1.7,1.7-0.8,2.5-0.8,2.5c0.8,0.4,2.6-0.3,4.2-1.1
		c0,1.6,0,3.2,0,4.8c-0.1,0.1-0.2,0.1-0.2,0.1c-1.1,2.1-5.1,3.8-5.1,3.8c-4.9,2.1-2.5,4.9-2.5,4.9c0.8,0.1,4.8-0.7,7.9-1.4
		c0,1,0,1.8,0,2.3c1,0,3.6,0,7.1,0c-0.9,1.5-2.5,3.1-2.5,3.1c-0.6,2.1-3.2,3-3.2,3c-6.8,1.7-6.4,4-6.4,4l5.1-0.4
		c1.5-1.3,2.6,0,2.6,0l1.7,0.4c0.9,1.3-0.4,5-0.4,5h-3.4c-0.2,1.3-2.5,1.3-2.5,1.3c-1.1-0.4-2.3,0.9-2.3,0.9
		c-0.4,0.8-2.3,1.7-2.3,1.7c-1.7,0.4-0.4,1.3-0.4,1.3c1.5-1.1,1.5,1.3,1.5,1.3c-0.4,1.1-3.9,1-3.8,1.9c0.1,1.6,11.7-3.2,11.7-3.2
		c1.5-1.3,2.5-0.6,2.5-0.6c1.1,1.7-2.1,3.8-2.1,3.8c-1.3,1.5-3.3,2.3-3.3,2.3c-4.9,0.8-5.5,3.6-5.5,4
		C-67.8,529.6-71.7,529.6-71.7,529.6z M-53.1,483.6c2.3-2.3,4,0,4,0c4,1.5,1.3,3,1.3,3c-0.5,0-3.6,1.4-6,2.5v-5
		C-53.4,483.7-53.1,483.6-53.1,483.6z M-53.8,478.6v-0.1h0.3C-53.6,478.5-53.7,478.5-53.8,478.6z M-52.8,496.8c3.8-1.5,4,0.6,4,0.6
		c0,0,0,0,0,0h-5.1V497C-53.1,496.9-52.8,496.8-52.8,496.8z M-45.6,540.8c0.7,1.4,0.8,5.3,0.8,5.3v0.8l-0.1,2.6h-7.6v-7
		c1.7-1.2,2.8-3.5,2.8-3.5C-47.5,538.2-46.3,539.4-45.6,540.8z M-61.9,529.6l5.2-1.1c0.4,0.1,0.5,0.5,0.5,1.1
		C-58.3,529.6-60.2,529.6-61.9,529.6z M-56.8,544.4c0.6-1.1,1.7-1.1,1.7-1.1c0.1,0,0.1,0,0.2,0c0,2.8,0,6.8,0,8.6
		c1.5,0,5.6,0,10.1,0l-0.2,4c0,1.8-0.2,5.7-0.3,6.7c-0.4,3.3-1.2,3.7-1.6,4c-0.6,0.4-1.6,0.6-3,1.2c-3.4,1.4-3.1,5.1-4.8,6.1
		c-2,1.3-1.5,0.9-3.3,1.3c-1.8,0.4-2.8,2.4-2.8,2.4h36.8c-0.1-1.1,0.1-2.2-4.2-3.6c-4.2-1.4-2.1-2.1-7.5-4.9c-2-1-3-4.5-3.5-7.1
		c-0.4-2-0.2-2.9-0.2-2.9l-0.2-6l0-1.2c4.7,0,9,0,10.6,0c0-1.7,0-6.2,0-10.7c2.5,0.4,6.7,3.8,6.7,3.8c4.5,2.6,3.6-0.2,3.6-0.2
		c-1.3-9.1-6.6-10-6.6-10c-3.2-0.9-1.1-2.8-1.1-2.8c3.8-3-0.7-3.8-0.7-3.8c-3,0.4-6.1-1.6-6.1-1.6c-5.3-4-3.4-6.6-3.4-6.6
		c0.4-2.8,6.7,1.3,6.7,1.3c1.7,1.5,3.4,0.2,3.4,0.2c0.2-0.8,2.2-2.4,2.2-2.4c3.6-2.8-5.1-3.4-5.1-3.4c-4.1-2.6-6.7-3.5-7.9-6.7
		c-0.3-0.9-0.4-1.5-0.4-1.5s6.5,0.6,6.9,0.7c0.4,0.1,2.7,0.3,2.7-0.5c0-0.6-1.2-2.4-3.9-3.6c-2.3-1-4.3-3.1-5.1-4.4
		c10,0,20.1,0,20.1,0l16.3,15.7v49.7l-16,16h-55.2l-16-16.2v-24.6H-65c-2.6,3.6-4.2,8.6-4.2,8.6c-0.2,2.5,3.3,0.4,3.3,0.4
		s0.4-0.6,0.5-0.9c1.3-2.1,4.7-2.3,4.7-2.3C-59,546.6-56.8,544.4-56.8,544.4z"/>
	<path d="M-40.9,450.9c0.1,0.1,0.6,0.4,1.9,0.7c0.7,0.2,1.2,0.9,1.2,1.7c0,0.1,0,0.3,0,0.4c-0.1,0.8-0.8,2.1-1.8,2.4
		c0.1,0,0.6,0.4,0.6,0.4c1.8,1.4,3.3,4.1,1.8,4.6c2.1,1.4,2.8,2.9,2.8,3.5c0.1,1.3-0.7,1.6-0.8,1.8c1.2,0.6,2.6,1.8,3.1,3.5l0.2,0.5
		l-0.2,0.5c-0.3,0.9-1.5,2.3-4.2,2.1l-0.2,0l-0.2,0c-0.8-0.3-1.6-0.4-2-0.1c-0.1,0.1-0.2,0.2-0.2,0.5c0,0.1,0.1,0.3,0.1,0.4
		c0,0.1,0.1,0.2,0.3,0.4h10.3v5.3c1.9,1.1,3.3,2.2,3.5,3.4c0,0.1,0.1,0.3,0.1,0.4c0,0.5-0.2,1.1-0.6,1.5c-0.5,0.5-1,0.6-2.9,0.4v1.9
		c0.1,0.1,0.2,0.1,0.2,0.2h25.2v-21.5l-16.7-17.2h-21.6c0,0.1,0,0.1,0,0.2C-40.9,449-40.5,450.9-40.9,450.9z"/>
	<path d="M-54.4,522.4l0.1-0.1l0.1-0.1c0.4-0.2,0.7-0.5,1-0.8c-0.1,0-0.1,0-0.1,0c-10.9,4.5-12.3,3.6-12.8,3.3
		c-0.5-0.3-0.7-0.7-0.8-1.3c0,0,0-0.1,0-0.1c0-1.5,1.6-1.9,2.7-2.2c-0.4-0.4-0.8-0.9-0.9-1.6c0-0.1,0-0.2,0-0.3
		c0.1-0.5,0.5-1.2,1.7-1.6c0.7-0.3,1.4-0.7,1.6-0.9c0,0,0.2-0.3,0.2-0.3l0.1-0.1c0.2-0.2,1.8-1.9,3.4-1.3c0.5,0,0.8-0.1,1-0.3
		c0-0.2,0.2-1,0.2-1h3.5c0.2-0.9,0.4-1.8,0.4-2.4c0,0,0-0.1,0-0.1c-0.5-0.1-0.9-0.2-0.9-0.2l-0.4-0.1l-0.3-0.3
		c-0.1-0.1-0.2-0.2-0.6,0.1l-0.3,0.3l-6.8,0.6l-0.2-1.2c-0.1-0.8-0.1-3.7,7.3-5.6c0.5-0.2,2-0.9,2.3-2.1l0.1-0.3h-5.7v-2.8
		c-2.6,0.5-5,0.9-5.8,0.8l-0.5-0.1l-0.3-0.4c-0.1-0.1-0.9-1.1-0.9-2.4c0-0.3,0-0.6,0.1-0.9c0.4-1.5,1.6-2.8,3.8-3.7
		c1-0.4,2.5-1.3,3.5-2.1v-3c-1,0.2-1.9,0.3-2.5-0.1l-0.2-0.1l-0.2-0.2c0,0-0.6-0.6-0.6-1.6c0-0.7,0.3-1.6,1.3-2.6
		c0.2-0.5,0.9-1.8,2.3-3.2V474H-48c0.4-0.6,0.7-1.2,0.6-2c0,0,0-0.1,0-0.1c-0.6,0.1-1.8,0.3-3.7,1.4l-0.5,0.3l-0.6-0.1
		c-0.7-0.2-2.8-0.9-3-2.6c0,0,0-0.1,0-0.1c0-1.4,1.3-2.6,2.6-3.2c0,0,0,0,0,0c-0.2-0.2-0.5-1.2-0.5-1.4c0.1-1.7,2.1-3,4-4.4
		c0.1-0.1,0.2-0.2,0.3-0.3c-0.2-0.2-0.5-0.4-0.6-0.6c-0.1-0.3-0.2-0.5-0.2-0.8c0-1.1-0.1-2.6,2.3-4.3c-0.1-0.2-0.4-0.5-0.4-0.5
		c-0.1-0.2-0.7-1.5-0.7-2.4c0-0.3,0.1-0.7,0.3-1.1c0.3-0.6,0.5-1.2,2.1-1.3c0,0,0.4,0,0.4,0c0,0,0.6-1.1,0.9-1.8c0,0,0-0.1,0-0.1
		h-23.5l-17.2,17.2v47.1l14.6,14.6h7.5c0.6-1.1,2.1-2.8,6.1-3.5C-57.1,523.9-55.4,523.5-54.4,522.4z"/>
	<path d="M-64.2,549.3l-0.6,1.1l-0.3,0.2c-0.8,0.5-3,1.6-4.4,0.7c-0.4-0.3-1-0.8-1-2c0-0.1,0-0.2,0-0.4l0-0.1l0-0.1
		c0.2-0.5,1-3,2.4-5.7h-17.2v21.3l14.7,14.9h7.8l0.9-1.9c0.1-0.3,1.3-2.6,3.7-3.1l1.1-0.2c0.5-0.1,0.5-0.1,1.8-0.9
		c0.4-0.2,0.8-0.9,1.1-1.7c0.7-1.6,1.4-3.4,3.9-4.5c0.8-0.3,1-0.5,1.7-0.6c0.4-0.1,1-0.3,1.1-0.4c0.2-0.1,0.7-0.4,1-3
		c0.1-0.7,0.2-2.3,0.3-4.3c0,0,0-2.4,0-2.4c0,0,0-0.1,0-0.1c0,0-0.1,0.2-0.1,0.2l0-1.5h-10.7v-7.9c-0.9,0.7-2.2,1.3-3.5,1.2
		C-61.5,547.7-63.5,548.1-64.2,549.3z"/>
	<path d="M-22.6,577.3l0.2,1.8h5l14.6-14.7v-47.8l-15-14.3h-14.7c0.4,0.3,0.8,0.5,1.3,0.7c2.9,1.3,4.6,3.4,4.7,4.7c0,0,0,0.1,0,0.1
		c0,0.6-0.3,1.2-1.1,1.6c-0.5,0.3-2.6,0.6-3.6,0.1c-0.9-0.1-2.6-0.3-4.3-0.4c0.9,1.8,2.3,2.7,4.8,4.1c0,0,1.6,0.9,2,1.2
		c2.9,0.2,6.2,0.9,6.8,2.9c0,0.2,0.1,0.4,0.1,0.6c0,0.7-0.3,1.5-1.4,2.3c-0.8,0.6-1.6,1.4-1.7,1.7c0,0.1-0.1,0.4-0.1,0.4l-0.3,0.3
		c-0.9,0.7-3,1.4-5-0.2c-1.8-1.1-3.8-2.1-4.7-2.1c0,0.1,0,0.2,0,0.2l-0.1,0.2c-0.1,0.1-0.1,0.3-0.1,0.5c0,0.8,0.7,2.3,3.1,4.2
		c0.3,0.2,2.8,1.7,5.1,1.4l0.2,0l0.2,0c0.5,0.1,2.8,0.6,3.3,2.4c0.3,1.2-0.4,2.5-1.9,3.7c-0.1,0.1-0.1,0.1-0.2,0.2
		c0.1,0.1,0.3,0.1,0.6,0.2c0.9,0.2,6.3,1.7,7.6,11.1c0.2,0.8,0.1,1.8-0.7,2.4c-1.3,1.1-3.3,0.1-4.9-0.8l-0.1,0l-0.1-0.1
		c-1.1-0.9-2.4-1.7-3.6-2.4v10.7h-11.5l0.2,4.8v0.1c0,0-0.2,0.8,0.1,2.5c0.6,3.1,1.7,5.6,2.8,6.2c3,1.5,3.9,2.3,4.6,3.1
		c0.6,0.7,0.9,1.1,2.7,1.7C-23.6,574.2-22.8,575.4-22.6,577.3z"/>
	<polygon points="-35.3,520.9 -35.3,520.9 -35.3,520.8 	"/>
	<path d="M154.3,529.4c-10.3,3.8-11.5,11.7-11.5,16.1c0,3.8,1.2,16.1,17.5,16.1c7.5,0,12.3-3.4,15-6.2c1.1,3.8,4.4,6.1,9.2,6.1
		c5.5,0,8.6-2.8,11.8-6.7l0.7-0.8l-2-2.2l-1,0.8c-0.5,0.4-1.1,0.6-2,0.6c-3.5,0-4.2-3.3-4.2-7.5c0-1.7,0.1-4.4,0.1-7.6
		c0.1-4.6,0.2-10.4,0.2-15.5c0-5.9-0.2-11.5-2.7-15.5c-3.4-5.1-8.8-7.5-17.1-7.5c-12.9,0-18.7,7.9-20.2,12.6l-0.3,0.9l3,1.8l0.6-1.2
		c0-0.1,3.3-6.2,11.4-6.2c5.5,0,9.6,2.7,11,6.9c0.7,2.2,0.7,3.1,0.7,6.6v1.9C167.2,525,165,525.5,154.3,529.4z M174.6,550.4
		c-3.2,2.3-6.9,2.8-9.4,2.8c-7.8,0-8.9-5.4-8.9-8.7c0-4.1,1.8-7.7,5.2-9.4c2.5-1.2,5.2-2.6,13.1-5L174.6,550.4L174.6,550.4z"/>
	<path d="M41.4,558.6c6.1,2,12,2.8,19.7,2.8c8.7,0,28.9-2.3,28.9-24c0-12.8-7.3-17.7-15-22.8l-9.1-6c-7.9-5.2-11.5-7.6-11.5-14.7
		c0-5.1,1.5-12,14.8-12c5.7,0,11,1.1,13.4,3.6c1.8,1.8,2.7,4.1,2.9,7.2l0.1,1.2h3l-0.1-1.9c-0.1-2.5-0.1-5-0.1-7.8
		c0-3.5,0.1-6.8,0.1-6.8l0-1.1l-1.1-0.2c-0.3,0-8.3-1.4-18.6-1.4c-25.1,0-27,16.8-27,22c0,10.5,5.1,15.8,15,22.4l7.2,4.8l1.1,0.7
		c6.8,4.6,11.7,7.9,11.7,15.8c0,9.3-5.3,13.6-16.7,13.6c-5.4,0-11.3-1.7-13.8-4.6c-1.7-1.9-2.6-4.5-2.7-7.2l-0.1-1.3l-3.5,0l0.2,3
		c0.1,1.9,0.3,4.1,0.3,9.9v4.3L41.4,558.6z"/>
	<path d="M136.9,508.7v-7.4h-20.4v-13.5h-2.6l-1.3,2.3c-0.1,0.1-4,7.6-9.8,12.1c-1.6,1.3-3,2.3-6.7,3.8l-0.8,0.3v2.3h7.9l0,4.2
		c-0.1,8.9-0.2,16.6-0.2,26.1c0,3.5,0,9.2,0.9,12.2c2.3,7.4,7.4,10.7,16.7,10.7c10.9,0,15.5-6,15.7-6.3l0.5-0.6l-1-2.4l-1.2,0.6
		c0,0-3.2,1.6-7.3,1.6c-8.9,0-10.6-5.3-10.6-14.7v-31.4L136.9,508.7L136.9,508.7L136.9,508.7z"/>
	<path d="M247.9,545.6c-0.1,4-0.3,8.6-2.2,10.5c-1,1-2.6,1.7-5,2l-1.1,0.1v2.8l1.4-0.1c5.3-0.5,9.2-0.5,13.6-0.5
		c3.9,0,7.6,0.2,11.9,0.4l3,0.2v-2.8l-1.2-0.1c-1.7-0.1-3.7-0.8-4.6-1.7c-1.9-1.7-2.2-4.5-2.2-14.4v-17.5c0-2.9-0.2-8.4-0.8-10.7
		c-2-9.1-9-14.2-19.8-14.2c-8.2,0-14.3,3.5-17.3,5.7v-4.7l-1.2-0.7l-0.7,0.3c-0.7,0.3-2.8,1.6-6.3,2.1c-4.6,0.9-9,1.1-10.8,1.1
		c-0.4,0-0.7,0-0.9,0l-1.4-0.1v3.4l1.1,0.1c0.1,0,0.3,0,0.5,0c1.4,0.1,4.2,0.3,5.4,2.1c1.1,1.6,1.2,4.8,1.2,12.1v17.1
		c0,10.2-0.1,15.3-2,17.4c-1.8,2-4.3,2.4-5.3,2.5l-1.1,0.1v2.8l1.3-0.1c5.4-0.5,9.4-0.5,13.7-0.5c3.8,0,7.4,0.2,11.5,0.4l3.2,0.2
		v-2.8l-1.2-0.1c-1.7-0.1-3.7-0.8-4.6-1.7c-1.8-1.7-2.2-4.5-2.2-14.4v-31.4c2.5-1.3,5.9-2.5,11.2-2.5c7.8,0,11.8,3.6,12.7,11.3
		c0.5,4.6,0.5,9.2,0.5,13.7c0,3.4,0,8.1-0.1,10.4C247.9,544.3,247.9,544.9,247.9,545.6z"/>
	<path d="M301.4,475.6c1.6-1.6,4.2-2.2,6-2.2c4.5,0,7.8,2,10.1,7.1l0.3,0.7l1.4,0l5.9-8.3l-0.2-1.3l-0.5-0.4
		c-3.2-2.6-8.8-4.6-14.6-4.6c-13.6,0-21.6,6.3-24,18.6c-0.7,3.7-0.9,10.6-0.9,15.9c-1.5,1.2-3.6,2.3-7,3.7l-0.8,0.3v3.3h7.8v29.7
		c0,10.2-0.1,15.2-1.9,17.3c-1.8,2-4.3,2.4-5.3,2.5l-1.2,0.1v2.9l1.4-0.1c5.4-0.5,10.4-0.5,14.8-0.5c3.5,0,8.4,0.2,15,0.5l1.3,0.1
		v-3.2h-1.3c-1.5,0-6.6-0.2-8.3-2.7c-1.1-1.5-1.3-5.4-1.3-13.3v-33.2h13.3v-7.4h-13.3v-11.6C298.3,482,298.8,478.2,301.4,475.6z"/>
	<path d="M345.4,562.1c22.5,0,30.4-17.3,30.4-32.1c0-19-10.9-30.4-29.2-30.4c-22.5,0-30.4,17.3-30.4,32.1
		C316.2,550.7,327.1,562.1,345.4,562.1z M337.7,509.2c2.1-1.8,4.9-2.7,8.5-2.7c14.7,0,15.5,20.1,15.5,24.1c0,10.4-2.4,17.8-7.2,21.8
		c-2.1,1.8-5,2.7-8.5,2.7c-14.7,0-15.5-20.1-15.5-24.1C330.4,520.6,332.9,513.2,337.7,509.2z"/>
	<path d="M409.9,509.8c5.4,0,8.2,2.6,9.6,4.8l0.4,0.6h2.4l5-9.2v-1.9l-0.4-0.4c-2.5-2.2-5.9-3.3-10-3.3c-6.4,0-11,2.9-13.8,5.6v-5.2
		l-1.1-0.6l-0.7,0.3c-1,0.5-3.5,1.2-6.4,1.7c-4.6,0.9-9,1.1-10.8,1.1c-0.4,0-0.8,0-1,0l-1.3,0v3.6l1.2,0.1c0.1,0,0.3,0,0.5,0
		c1.5,0.1,4.2,0.3,5.4,2.1c1.1,1.6,1.2,4.8,1.2,12.1v17.1c0,10.2-0.1,15.1-1.9,17.2c-1.7,2-4.3,2.4-5.3,2.5l-1.2,0.1v3l1.4-0.1
		c5.3-0.5,10.4-0.5,14.8-0.5c3.5,0,8.4,0.2,15,0.5l1.3,0.1v-3.3h-1.2c-1.5,0-6.6-0.2-8.3-2.7c-1-1.5-1.3-5.3-1.3-13.2v-30.1
		C405.3,510.4,407.4,509.8,409.9,509.8z"/>
	<path d="M493.5,555.8c-1.4-0.1-4-0.4-5.3-2.2c-1.1-1.4-1.2-6-1.2-13.3v-48.8c0-7.9,0-18.4,0.5-23.4l0-0.6l-1-0.6l-0.6,0.2
		c-1.2,0.4-3.6,1-5.9,1.4c-5.6,1.1-12.5,1.7-12.8,1.7H466l-0.3,2.7l1.1,0.1c0.1,0,0.3,0,0.5,0c1.4,0.1,4,0.3,5.3,2.1
		c1.1,1.6,1.2,5.6,1.2,13v12.7c-2.6-0.6-6.9-1.1-11.7-1.1c-13.1,0-23.5,6.2-28.5,17.1c-2.1,4.7-3.3,10.2-3.3,16.1
		c0,17.7,10.6,29,27,29c7.9,0,13.7-3.4,16.7-5.6v5.1l1.6,0.5l0.5-0.2c1.1-0.5,3.2-0.9,6.1-1.4c5.1-0.9,10.3-1.2,11.6-1.2h1.3v-3.2
		l-1.1,0C493.9,555.8,493.7,555.8,493.5,555.8z M473.8,551c-3.4,2.1-7.4,2.4-9.5,2.4h-0.5c-17.4,0-19.3-15.5-19.3-22.1
		c0-16.4,5.7-24.4,17.3-24.4c7.3,0,11,3,11.9,4V551z"/>
</g>
</svg>
